<?xml version="1.0" encoding="UTF-8"?>
<svg xmlns="http://www.w3.org/2000/svg" xmlns:xlink="http://www.w3.org/1999/xlink" width="446px" height="446px" viewBox="0 0 446 446" version="1.1">
<defs>
<filter id="alpha" filterUnits="objectBoundingBox" x="0%" y="0%" width="100%" height="100%">
  <feColorMatrix type="matrix" in="SourceGraphic" values="0 0 0 0 1 0 0 0 0 1 0 0 0 0 1 0 0 0 1 0"/>
</filter>
<mask id="mask0">
  <g filter="url(#alpha)">
<rect x="0" y="0" width="446" height="446" style="fill:rgb(0%,0%,0%);fill-opacity:0.2;stroke:none;"/>
  </g>
</mask>
<clipPath id="clip1">
  <rect x="0" y="0" width="446" height="446"/>
</clipPath>
<g id="surface5" clip-path="url(#clip1)">
<path style=" stroke:none;fill-rule:nonzero;fill:rgb(0%,0%,0%);fill-opacity:1;" d="M 107.039062 317.1875 L 114.292969 313.003906 C 118.339844 309.699219 121.421875 305.363281 123.210938 300.453125 C 125.449219 294.28125 125.140625 289.585938 123.53125 287.234375 C 121.5625 284.332031 116.449219 284.84375 116.246094 290.945312 C 115.816406 302.96875 112.3125 311.308594 107.039062 317.1875 Z M 107.039062 317.1875 "/>
</g>
<mask id="mask1">
  <g filter="url(#alpha)">
<rect x="0" y="0" width="446" height="446" style="fill:rgb(0%,0%,0%);fill-opacity:0.2;stroke:none;"/>
  </g>
</mask>
<clipPath id="clip2">
  <rect x="0" y="0" width="446" height="446"/>
</clipPath>
<g id="surface8" clip-path="url(#clip2)">
<path style=" stroke:none;fill-rule:nonzero;fill:rgb(0%,0%,0%);fill-opacity:1;" d="M 185.535156 254.703125 C 185.535156 254.703125 176.980469 252.613281 176.535156 236.59375 C 176.0625 219.308594 178.632812 199.128906 168.507812 197.496094 C 158.382812 195.867188 152.765625 208.203125 152.890625 222.609375 C 153.003906 235.21875 158.089844 262.605469 185.5 267.976562 Z M 185.535156 254.703125 "/>
</g>
<mask id="mask2">
  <g filter="url(#alpha)">
<rect x="0" y="0" width="446" height="446" style="fill:rgb(0%,0%,0%);fill-opacity:0.701961;stroke:none;"/>
  </g>
</mask>
<clipPath id="clip3">
  <rect x="0" y="0" width="446" height="446"/>
</clipPath>
<g id="surface11" clip-path="url(#clip3)">
<path style=" stroke:none;fill-rule:nonzero;fill:rgb(100%,100%,100%);fill-opacity:1;" d="M 252.585938 153.976562 C 255.183594 152.476562 257.289062 153.691406 257.289062 156.652344 C 257.109375 159.960938 255.363281 162.988281 252.585938 164.796875 C 249.992188 166.296875 247.886719 165.082031 247.886719 162.121094 C 248.066406 158.8125 249.8125 155.785156 252.585938 153.976562 Z M 252.585938 153.976562 "/>
</g>
<mask id="mask3">
  <g filter="url(#alpha)">
<rect x="0" y="0" width="446" height="446" style="fill:rgb(0%,0%,0%);fill-opacity:0.701961;stroke:none;"/>
  </g>
</mask>
<clipPath id="clip4">
  <rect x="0" y="0" width="446" height="446"/>
</clipPath>
<g id="surface14" clip-path="url(#clip4)">
<path style=" stroke:none;fill-rule:nonzero;fill:rgb(100%,100%,100%);fill-opacity:1;" d="M 261.75 169.960938 C 261.75 165.039062 258.296875 163.039062 254.023438 165.5 L 251.347656 167.042969 C 247.085938 169.507812 243.621094 175.5 243.621094 180.425781 L 243.621094 181.753906 C 246.09375 182.566406 249.199219 182.128906 252.542969 180.175781 C 256.25 177.890625 259.382812 174.785156 261.703125 171.101562 Z M 261.75 169.960938 "/>
</g>
<mask id="mask4">
  <g filter="url(#alpha)">
<rect x="0" y="0" width="446" height="446" style="fill:rgb(0%,0%,0%);fill-opacity:0.101961;stroke:none;"/>
  </g>
</mask>
<clipPath id="clip5">
  <rect x="0" y="0" width="446" height="446"/>
</clipPath>
<g id="surface17" clip-path="url(#clip5)">
<path style=" stroke:none;fill-rule:nonzero;fill:rgb(0%,0%,0%);fill-opacity:1;" d="M 224.542969 200.558594 L 243.195312 189.789062 C 244.085938 189.300781 244.738281 189.691406 244.738281 190.683594 L 244.738281 191.296875 C 244.679688 192.386719 244.105469 193.378906 243.195312 193.972656 L 224.542969 204.742188 C 223.695312 205.230469 223 204.828125 223 203.847656 L 223 203.234375 C 223.058594 202.144531 223.632812 201.152344 224.542969 200.558594 Z M 224.542969 200.558594 "/>
</g>
<mask id="mask5">
  <g filter="url(#alpha)">
<rect x="0" y="0" width="446" height="446" style="fill:rgb(0%,0%,0%);fill-opacity:0.2;stroke:none;"/>
  </g>
</mask>
<clipPath id="clip6">
  <rect x="0" y="0" width="446" height="446"/>
</clipPath>
<g id="surface20" clip-path="url(#clip6)">
<path style=" stroke:none;fill-rule:nonzero;fill:rgb(100%,100%,100%);fill-opacity:1;" d="M 223.777344 213.554688 L 280.203125 180.976562 C 280.625 180.726562 280.972656 180.925781 280.972656 181.425781 L 280.972656 188.007812 C 280.9375 188.546875 280.65625 189.042969 280.203125 189.34375 L 223.777344 221.921875 C 223.347656 222.171875 223 221.964844 223 221.476562 L 223 214.890625 C 223.03125 214.347656 223.320312 213.851562 223.777344 213.554688 Z M 223.777344 213.554688 "/>
</g>
<mask id="mask6">
  <g filter="url(#alpha)">
<rect x="0" y="0" width="446" height="446" style="fill:rgb(0%,0%,0%);fill-opacity:0.101961;stroke:none;"/>
  </g>
</mask>
<clipPath id="clip7">
  <rect x="0" y="0" width="446" height="446"/>
</clipPath>
<g id="surface23" clip-path="url(#clip7)">
<path style=" stroke:none;fill-rule:nonzero;fill:rgb(0%,0%,0%);fill-opacity:1;" d="M 224.542969 229.839844 L 243.195312 219.074219 C 244.085938 218.585938 244.738281 218.984375 244.738281 219.96875 L 244.738281 220.582031 C 244.683594 221.671875 244.109375 222.664062 243.195312 223.257812 L 224.542969 234.023438 C 223.695312 234.523438 223 234.125 223 233.132812 L 223 232.519531 C 223.0625 231.429688 223.632812 230.4375 224.542969 229.839844 Z M 224.542969 229.839844 "/>
</g>
<mask id="mask7">
  <g filter="url(#alpha)">
<rect x="0" y="0" width="446" height="446" style="fill:rgb(0%,0%,0%);fill-opacity:0.2;stroke:none;"/>
  </g>
</mask>
<clipPath id="clip8">
  <rect x="0" y="0" width="446" height="446"/>
</clipPath>
<g id="surface26" clip-path="url(#clip8)">
<path style=" stroke:none;fill-rule:nonzero;fill:rgb(100%,100%,100%);fill-opacity:1;" d="M 223.777344 242.839844 L 280.203125 210.261719 C 280.625 210.011719 280.972656 210.21875 280.972656 210.707031 L 280.972656 217.292969 C 280.9375 217.832031 280.65625 218.328125 280.203125 218.628906 L 223.777344 251.203125 C 223.347656 251.453125 223 251.257812 223 250.757812 L 223 244.175781 C 223.03125 243.632812 223.320312 243.136719 223.777344 242.839844 Z M 223.777344 242.839844 "/>
</g>
<mask id="mask8">
  <g filter="url(#alpha)">
<rect x="0" y="0" width="446" height="446" style="fill:rgb(0%,0%,0%);fill-opacity:0.101961;stroke:none;"/>
  </g>
</mask>
<clipPath id="clip9">
  <rect x="0" y="0" width="446" height="446"/>
</clipPath>
<g id="surface29" clip-path="url(#clip9)">
<path style=" stroke:none;fill-rule:nonzero;fill:rgb(0%,0%,0%);fill-opacity:1;" d="M 246.28125 246.574219 L 268.582031 233.722656 C 269.472656 233.222656 270.132812 233.625 270.132812 234.613281 L 270.132812 241.5 C 270.074219 242.589844 269.496094 243.582031 268.582031 244.175781 L 246.28125 257.039062 C 245.390625 257.53125 244.738281 257.128906 244.738281 256.148438 L 244.738281 249.25 C 244.800781 248.164062 245.375 247.171875 246.28125 246.574219 Z M 246.28125 246.574219 "/>
</g>
<mask id="mask9">
  <g filter="url(#alpha)">
<rect x="0" y="0" width="446" height="446" style="fill:rgb(0%,0%,0%);fill-opacity:0.2;stroke:none;"/>
  </g>
</mask>
<clipPath id="clip10">
  <rect x="0" y="0" width="446" height="446"/>
</clipPath>
<g id="surface32" clip-path="url(#clip10)">
<path style=" stroke:none;fill-rule:nonzero;fill:rgb(0%,0%,0%);fill-opacity:1;" d="M 340.878906 223.730469 C 343.625 228.011719 346.230469 231.757812 346.800781 236.59375 C 347.976562 246.753906 344.125 258.367188 343.296875 265.886719 C 344.855469 268.027344 345.753906 270.574219 345.882812 273.21875 C 345.882812 276.332031 340.878906 305.636719 340.878906 305.636719 C 340.878906 305.636719 337.238281 306.742188 335.390625 305.144531 L 331.957031 251.242188 L 333.742188 244.675781 Z M 340.878906 223.730469 "/>
</g>
<mask id="mask10">
  <g filter="url(#alpha)">
<rect x="0" y="0" width="446" height="446" style="fill:rgb(0%,0%,0%);fill-opacity:0.301961;stroke:none;"/>
  </g>
</mask>
<clipPath id="clip11">
  <rect x="0" y="0" width="446" height="446"/>
</clipPath>
<g id="surface35" clip-path="url(#clip11)">
<path style=" stroke:none;fill-rule:nonzero;fill:rgb(0%,0%,0%);fill-opacity:1;" d="M 331.957031 251.242188 L 333.742188 244.675781 C 337.15625 243.777344 340.453125 242.46875 343.554688 240.777344 C 343.554688 240.777344 341.699219 244.160156 336.363281 246.011719 L 333.609375 254.441406 L 333.375 273.753906 Z M 331.957031 251.242188 "/>
</g>
<mask id="mask11">
  <g filter="url(#alpha)">
<rect x="0" y="0" width="446" height="446" style="fill:rgb(0%,0%,0%);fill-opacity:0.2;stroke:none;"/>
  </g>
</mask>
<clipPath id="clip12">
  <rect x="0" y="0" width="446" height="446"/>
</clipPath>
<g id="surface38" clip-path="url(#clip12)">
<path style=" stroke:none;fill-rule:nonzero;fill:rgb(0%,0%,0%);fill-opacity:1;" d="M 340.878906 223.730469 C 342.347656 226.140625 345.863281 230.242188 345.113281 234.195312 C 344.222656 238.976562 341.636719 242.339844 333.769531 244.675781 L 326.382812 271.4375 C 326.382812 271.4375 330.226562 275.003906 331.40625 278.457031 C 332.582031 281.90625 336.828125 308.203125 336.828125 308.203125 C 336.828125 308.203125 335.507812 310.355469 331.359375 309.835938 C 331.359375 309.835938 316.902344 276.832031 315.882812 274.683594 C 314.648438 272.503906 314.21875 269.964844 314.660156 267.5 C 315.117188 264.039062 320.015625 226.15625 320.015625 226.15625 Z M 340.878906 223.730469 "/>
</g>
<mask id="mask12">
  <g filter="url(#alpha)">
<rect x="0" y="0" width="446" height="446" style="fill:rgb(0%,0%,0%);fill-opacity:0.701961;stroke:none;"/>
  </g>
</mask>
<clipPath id="clip13">
  <rect x="0" y="0" width="446" height="446"/>
</clipPath>
<g id="surface41" clip-path="url(#clip13)">
<path style=" stroke:none;fill-rule:nonzero;fill:rgb(100%,100%,100%);fill-opacity:1;" d="M 343.589844 203.375 L 325.214844 200.40625 C 324.839844 200.324219 324.234375 200.171875 323.429688 199.96875 C 323.429688 199.96875 322.644531 211.492188 317.925781 214.132812 C 318.042969 214.6875 318.140625 215.300781 318.230469 216.007812 C 318.507812 218.21875 320.015625 226.121094 320.015625 226.121094 C 320.015625 226.121094 327.148438 229.574219 333.011719 227.90625 C 338.871094 226.238281 340.851562 223.75 340.851562 223.75 L 337.917969 218.96875 C 338.738281 216.980469 342.429688 208.988281 343.589844 203.375 Z M 343.589844 203.375 "/>
</g>
</defs>
<g id="surface1">
<path style=" stroke:none;fill-rule:nonzero;fill:rgb(96.078431%,96.078431%,96.078431%);fill-opacity:1;" d="M 111.707031 347.203125 C 173.171875 376.496094 272.828125 376.503906 334.292969 347.203125 C 395.761719 317.898438 395.753906 270.410156 334.292969 241.117188 C 272.835938 211.824219 173.171875 211.824219 111.707031 241.117188 C 50.238281 270.410156 50.246094 317.910156 111.707031 347.203125 Z M 111.707031 347.203125 "/>
<path style=" stroke:none;fill-rule:nonzero;fill:rgb(92.156863%,92.156863%,92.156863%);fill-opacity:1;" d="M 354.578125 315.785156 C 354.578125 310.390625 345.402344 306.019531 334.082031 306.019531 C 322.761719 306.019531 313.582031 310.390625 313.582031 315.785156 C 313.582031 321.179688 322.761719 325.554688 334.082031 325.554688 C 345.402344 325.554688 354.578125 321.179688 354.578125 315.785156 Z M 354.578125 315.785156 "/>
<path style=" stroke:none;fill-rule:nonzero;fill:rgb(100%,69.019608%,0%);fill-opacity:1;" d="M 107.039062 317.1875 L 114.292969 313.003906 C 118.339844 309.699219 121.421875 305.363281 123.210938 300.453125 C 125.449219 294.28125 125.140625 289.585938 123.53125 287.234375 C 121.5625 284.332031 116.449219 284.84375 116.246094 290.945312 C 115.816406 302.96875 112.3125 311.308594 107.039062 317.1875 Z M 107.039062 317.1875 "/>
<use xlink:href="#surface5" mask="url(#mask0)"/>
<path style=" stroke:none;fill-rule:nonzero;fill:rgb(100%,100%,100%);fill-opacity:1;" d="M 107.039062 317.632812 C 106.847656 317.628906 106.675781 317.503906 106.621094 317.316406 C 106.5625 317.132812 106.632812 316.929688 106.789062 316.820312 C 123.558594 305.222656 120.3125 289.050781 120.277344 288.890625 C 120.226562 288.644531 120.382812 288.402344 120.628906 288.351562 C 120.875 288.300781 121.117188 288.457031 121.167969 288.703125 C 121.167969 288.875 124.59375 305.597656 107.324219 317.550781 C 107.242188 317.609375 107.140625 317.636719 107.039062 317.632812 Z M 107.039062 317.632812 "/>
<path style=" stroke:none;fill-rule:nonzero;fill:rgb(100%,69.019608%,0%);fill-opacity:1;" d="M 92.507812 325.578125 C 92.507812 325.578125 89.984375 323.527344 90.589844 320.746094 C 91.199219 317.960938 92.832031 315.964844 90.039062 312.378906 C 87.246094 308.792969 86.46875 304.011719 89.804688 301.425781 C 92.347656 299.417969 96.316406 302.253906 97.746094 296.964844 C 98.796875 293.09375 98.441406 284.519531 103.375 281.667969 C 108.304688 278.8125 111.402344 283.113281 110.625 288.925781 C 109.949219 294.128906 108.984375 299.132812 109.734375 300.523438 C 111.179688 303.199219 113.648438 302.835938 113.535156 307.722656 C 113.4375 312.269531 109.128906 316.035156 109.128906 316.035156 Z M 92.507812 325.578125 "/>
<path style=" stroke:none;fill-rule:nonzero;fill:rgb(100%,100%,100%);fill-opacity:1;" d="M 100.796875 321.21875 C 100.570312 321.214844 100.382812 321.050781 100.351562 320.824219 C 99.074219 310.253906 102.132812 292.003906 104.632812 286.582031 C 104.675781 286.460938 104.765625 286.363281 104.886719 286.316406 C 105.007812 286.265625 105.140625 286.273438 105.257812 286.332031 C 105.363281 286.378906 105.445312 286.46875 105.488281 286.582031 C 105.527344 286.691406 105.519531 286.816406 105.46875 286.921875 C 103 292.273438 100.046875 310.578125 101.269531 320.683594 C 101.292969 320.925781 101.121094 321.144531 100.875 321.171875 Z M 100.796875 321.21875 "/>
<path style=" stroke:none;fill-rule:nonzero;fill:rgb(100%,100%,100%);fill-opacity:1;" d="M 100.554688 312.984375 C 100.488281 312.988281 100.417969 312.972656 100.359375 312.941406 C 97.265625 311.433594 95.300781 306.054688 95.222656 305.804688 C 95.160156 305.652344 95.1875 305.480469 95.292969 305.355469 C 95.394531 305.230469 95.558594 305.171875 95.71875 305.203125 C 95.878906 305.234375 96.007812 305.347656 96.058594 305.5 C 96.058594 305.554688 97.976562 310.765625 100.75 312.109375 C 100.9375 312.203125 101.039062 312.410156 100.992188 312.613281 C 100.945312 312.816406 100.761719 312.960938 100.554688 312.957031 Z M 100.554688 312.984375 "/>
<path style=" stroke:none;fill-rule:nonzero;fill:rgb(100%,100%,100%);fill-opacity:1;" d="M 100.5 316.554688 C 100.320312 316.554688 100.15625 316.4375 100.089844 316.265625 C 100 316.039062 100.105469 315.78125 100.332031 315.6875 C 105.542969 313.601562 108.789062 307.402344 108.824219 307.328125 C 108.9375 307.109375 109.207031 307.023438 109.425781 307.136719 C 109.644531 307.25 109.730469 307.519531 109.617188 307.738281 C 109.476562 308.007812 106.183594 314.304688 100.699219 316.515625 C 100.636719 316.546875 100.570312 316.558594 100.5 316.554688 Z M 100.5 316.554688 "/>
<path style=" stroke:none;fill-rule:nonzero;fill:rgb(100%,69.019608%,0%);fill-opacity:1;" d="M 282.585938 268.5625 C 282.585938 268.5625 278.6875 262.246094 278.304688 255.386719 C 277.921875 248.527344 279.429688 245.675781 281.496094 244.855469 C 283.566406 244.035156 283.726562 246.558594 284.789062 248.046875 C 285.851562 249.535156 288.019531 248.691406 288.820312 244.042969 C 289.625 239.394531 292.550781 231.554688 298.632812 230.027344 C 305.324219 228.371094 301.738281 236.21875 300.050781 239.277344 C 298.363281 242.339844 297.0625 246.511719 298.167969 247.644531 C 299.273438 248.777344 300.996094 246.683594 302.628906 248.628906 C 304.617188 250.972656 298.4375 259.421875 294.886719 261.464844 Z M 282.585938 268.5625 "/>
<path style=" stroke:none;fill-rule:nonzero;fill:rgb(100%,100%,100%);fill-opacity:1;" d="M 287.929688 265.914062 C 287.808594 265.910156 287.699219 265.859375 287.617188 265.769531 C 287.539062 265.683594 287.496094 265.570312 287.5 265.449219 C 288.105469 254.414062 291.546875 243.722656 297.492188 234.410156 C 297.558594 234.3125 297.664062 234.246094 297.78125 234.226562 C 297.898438 234.207031 298.019531 234.238281 298.117188 234.3125 C 298.308594 234.453125 298.351562 234.726562 298.214844 234.925781 C 292.375 244.105469 288.996094 254.632812 288.402344 265.496094 C 288.394531 265.613281 288.339844 265.722656 288.253906 265.800781 C 288.164062 265.882812 288.046875 265.921875 287.929688 265.914062 Z M 287.929688 265.914062 "/>
<path style=" stroke:none;fill-rule:nonzero;fill:rgb(100%,100%,100%);fill-opacity:1;" d="M 288.4375 260.640625 C 288.363281 260.640625 288.289062 260.625 288.222656 260.589844 C 285.726562 259.207031 284.34375 255.101562 284.289062 254.933594 C 284.25 254.820312 284.257812 254.699219 284.308594 254.589844 C 284.359375 254.484375 284.453125 254.402344 284.566406 254.363281 C 284.800781 254.285156 285.050781 254.414062 285.128906 254.648438 C 285.128906 254.648438 286.464844 258.601562 288.695312 259.804688 C 288.90625 259.929688 288.980469 260.195312 288.867188 260.410156 C 288.78125 260.566406 288.613281 260.660156 288.4375 260.640625 Z M 288.4375 260.640625 "/>
<path style=" stroke:none;fill-rule:nonzero;fill:rgb(100%,100%,100%);fill-opacity:1;" d="M 288.875 257.941406 C 288.671875 257.9375 288.496094 257.796875 288.445312 257.601562 C 288.417969 257.488281 288.433594 257.367188 288.496094 257.265625 C 288.554688 257.164062 288.652344 257.09375 288.765625 257.066406 C 295.207031 255.433594 297.4375 252.0625 297.457031 252.027344 C 297.589844 251.816406 297.867188 251.753906 298.074219 251.886719 C 298.285156 252.019531 298.347656 252.296875 298.214844 252.507812 C 298.117188 252.660156 295.796875 256.199219 288.988281 257.929688 Z M 288.875 257.941406 "/>
<path style=" stroke:none;fill-rule:nonzero;fill:rgb(100%,69.019608%,0%);fill-opacity:1;" d="M 185.535156 254.703125 C 185.535156 254.703125 176.980469 252.613281 176.535156 236.59375 C 176.0625 219.308594 178.632812 199.128906 168.507812 197.496094 C 158.382812 195.867188 152.765625 208.203125 152.890625 222.609375 C 153.003906 235.21875 158.089844 262.605469 185.5 267.976562 Z M 185.535156 254.703125 "/>
<use xlink:href="#surface8" mask="url(#mask1)"/>
<path style=" stroke:none;fill-rule:nonzero;fill:rgb(100%,100%,100%);fill-opacity:1;" d="M 185.535156 266.332031 L 185.457031 266.332031 C 179.292969 265.210938 174.269531 261.8125 170.53125 256.246094 C 159.453125 239.714844 162.941406 208.851562 164.09375 203.464844 C 164.144531 203.226562 164.378906 203.074219 164.617188 203.117188 C 164.859375 203.175781 165.011719 203.410156 164.964844 203.652344 C 163.832031 209.003906 160.363281 239.476562 171.273438 255.746094 C 174.484375 260.847656 179.6875 264.367188 185.617188 265.449219 C 185.734375 265.472656 185.835938 265.539062 185.90625 265.640625 C 185.972656 265.738281 185.996094 265.859375 185.972656 265.976562 C 185.933594 266.1875 185.75 266.335938 185.535156 266.332031 Z M 185.535156 266.332031 "/>
<path style=" stroke:none;fill-rule:nonzero;fill:rgb(100%,69.019608%,0%);fill-opacity:1;" d="M 185.535156 307.445312 C 176.695312 308.640625 162.34375 308.625 154.058594 302.09375 C 145.769531 295.5625 147.5 289.945312 150.6875 287.597656 C 153.871094 285.253906 156.636719 282.578125 151.160156 277.367188 C 145.679688 272.15625 136.886719 263.792969 134.03125 251.242188 C 131.175781 238.691406 132.585938 230.839844 138.1875 228.226562 C 143.621094 225.695312 145.058594 229.726562 148.382812 238.039062 C 151.710938 246.351562 159.195312 239.226562 165.601562 241.820312 C 172.003906 244.417969 171.746094 249.554688 172.148438 253.96875 C 172.546875 258.386719 174.664062 259.609375 178.292969 259.609375 C 181.921875 259.609375 185.535156 261.695312 185.535156 265.851562 Z M 185.535156 307.445312 "/>
<path style=" stroke:none;fill-rule:nonzero;fill:rgb(100%,100%,100%);fill-opacity:1;" d="M 185.535156 292.871094 C 185.496094 292.878906 185.457031 292.878906 185.421875 292.871094 C 185.035156 292.761719 175.894531 290.105469 162.574219 277.875 C 148.394531 264.851562 141.703125 245.316406 141.632812 245.121094 C 141.5625 244.886719 141.6875 244.640625 141.917969 244.558594 C 142.148438 244.484375 142.398438 244.605469 142.480469 244.835938 C 142.542969 245.03125 149.167969 264.351562 163.183594 277.214844 C 176.3125 289.285156 185.5625 291.988281 185.660156 292.015625 C 185.898438 292.082031 186.03125 292.332031 185.964844 292.566406 C 185.90625 292.753906 185.730469 292.875 185.535156 292.871094 Z M 185.535156 292.871094 "/>
<path style=" stroke:none;fill-rule:nonzero;fill:rgb(100%,100%,100%);fill-opacity:1;" d="M 166.296875 280.980469 C 166.113281 280.984375 165.945312 280.867188 165.886719 280.695312 C 163.023438 273.34375 162.371094 257.617188 162.316406 256.949219 C 162.3125 256.703125 162.5 256.5 162.746094 256.484375 C 162.988281 256.488281 163.1875 256.671875 163.210938 256.914062 C 163.210938 257.074219 163.878906 273.15625 166.6875 280.375 C 166.730469 280.484375 166.726562 280.609375 166.679688 280.71875 C 166.632812 280.828125 166.542969 280.910156 166.429688 280.953125 C 166.386719 280.96875 166.339844 280.976562 166.296875 280.980469 Z M 166.296875 280.980469 "/>
<path style=" stroke:none;fill-rule:nonzero;fill:rgb(100%,100%,100%);fill-opacity:1;" d="M 166.222656 291.550781 C 165.402344 291.558594 164.578125 291.515625 163.761719 291.425781 C 163.515625 291.394531 163.339844 291.171875 163.371094 290.925781 C 163.398438 290.679688 163.621094 290.503906 163.871094 290.535156 C 163.949219 290.535156 172.253906 291.480469 176.0625 287.597656 C 176.171875 287.46875 176.339844 287.414062 176.503906 287.453125 C 176.667969 287.488281 176.796875 287.617188 176.835938 287.777344 C 176.875 287.941406 176.824219 288.113281 176.695312 288.222656 C 173.941406 291.070312 169.132812 291.550781 166.222656 291.550781 Z M 166.222656 291.550781 "/>
<path style=" stroke:none;fill-rule:nonzero;fill:rgb(87.843137%,87.843137%,87.843137%);fill-opacity:1;" d="M 159.800781 122.640625 L 158.839844 117.082031 L 153.878906 120.347656 C 153.425781 119.457031 152.785156 118.675781 151.996094 118.054688 L 154.371094 111.632812 L 149.910156 110.644531 L 146.644531 116.886719 C 145.464844 117.085938 144.320312 117.460938 143.246094 117.992188 L 141.828125 113.285156 L 136.53125 117.449219 L 136.878906 122.980469 C 135.796875 124.1875 134.820312 125.484375 133.953125 126.851562 L 129.582031 126.628906 L 126.511719 133.503906 L 130.269531 135.109375 C 129.875 136.535156 129.628906 137.992188 129.527344 139.464844 L 124.753906 143.851562 L 125.710938 149.417969 L 130.679688 146.152344 C 131.128906 147.046875 131.769531 147.824219 132.558594 148.4375 L 130.230469 154.867188 L 134.691406 155.851562 L 139.367188 151.300781 C 140.445312 151.132812 140.179688 149.097656 141.355469 148.519531 L 142.773438 153.210938 L 148.0625 149.054688 L 147.929688 146.875 C 149 145.679688 153.050781 143.050781 153.921875 141.675781 L 155.019531 139.890625 L 158.089844 133.015625 L 156.660156 130.429688 L 155.074219 127.054688 Z M 143.613281 140.9375 C 139.542969 144.128906 138.261719 144.835938 137.574219 140.5625 C 136.886719 136.289062 139.214844 129.792969 143.28125 126.59375 C 147.347656 123.390625 148.902344 123.167969 149.632812 127.429688 C 150.363281 131.695312 147.6875 137.777344 143.613281 140.9375 Z M 143.613281 140.9375 "/>
<path style=" stroke:none;fill-rule:nonzero;fill:rgb(96.078431%,96.078431%,96.078431%);fill-opacity:1;" d="M 149.945312 110.644531 L 155.734375 113.980469 L 152.46875 120.207031 L 146.679688 116.871094 Z M 149.945312 110.644531 "/>
<path style=" stroke:none;fill-rule:nonzero;fill:rgb(96.078431%,96.078431%,96.078431%);fill-opacity:1;" d="M 164.628906 120.421875 L 159.667969 123.683594 L 153.878906 120.347656 L 158.839844 117.082031 Z M 164.628906 120.421875 "/>
<path style=" stroke:none;fill-rule:nonzero;fill:rgb(87.843137%,87.843137%,87.843137%);fill-opacity:1;" d="M 163.832031 136.324219 L 160.078125 134.726562 L 154.289062 131.390625 L 158.042969 132.988281 Z M 163.832031 136.324219 "/>
<path style=" stroke:none;fill-rule:nonzero;fill:rgb(87.843137%,87.843137%,87.843137%);fill-opacity:1;" d="M 130.222656 154.867188 L 136.011719 158.195312 L 138.386719 151.773438 L 132.597656 148.4375 Z M 130.222656 154.867188 "/>
<path style=" stroke:none;fill-rule:nonzero;fill:rgb(87.843137%,87.843137%,87.843137%);fill-opacity:1;" d="M 148.507812 156.546875 L 142.730469 153.210938 L 141.3125 148.519531 L 147.101562 151.855469 Z M 148.507812 156.546875 "/>
<path style=" stroke:none;fill-rule:nonzero;fill:rgb(92.156863%,92.156863%,92.156863%);fill-opacity:1;" d="M 165.582031 125.976562 L 164.628906 120.421875 L 159.667969 123.683594 C 159.210938 122.792969 158.566406 122.011719 157.777344 121.390625 L 160.148438 114.96875 L 155.734375 113.980469 L 152.460938 120.222656 C 151.28125 120.421875 150.132812 120.796875 149.0625 121.328125 L 147.652344 116.636719 L 142.355469 120.804688 L 142.703125 126.332031 C 141.621094 127.550781 140.644531 128.855469 139.777344 130.230469 L 135.398438 130.007812 L 132.328125 136.886719 L 136.082031 138.492188 C 135.695312 139.917969 135.445312 141.378906 135.34375 142.855469 L 130.578125 147.179688 L 131.535156 152.746094 L 136.492188 149.480469 C 136.949219 150.371094 137.597656 151.152344 138.386719 151.765625 L 136.011719 158.1875 L 140.472656 159.175781 L 143.738281 152.933594 C 144.921875 152.738281 146.070312 152.359375 147.144531 151.820312 L 148.554688 156.511719 L 153.851562 152.355469 L 153.503906 146.824219 C 154.582031 145.613281 155.5625 144.320312 156.429688 142.953125 L 160.808594 143.164062 L 163.878906 136.289062 L 160.070312 134.691406 C 160.464844 133.265625 160.714844 131.804688 160.820312 130.332031 Z M 149.410156 144.308594 C 145.351562 147.5 141.460938 146.636719 140.722656 142.371094 C 139.980469 138.109375 142.683594 132.050781 146.75 128.859375 C 150.820312 125.664062 154.699219 126.539062 155.441406 130.804688 C 156.179688 135.066406 153.476562 141.113281 149.410156 144.308594 Z M 149.410156 144.308594 "/>
<path style=" stroke:none;fill-rule:nonzero;fill:rgb(96.078431%,96.078431%,96.078431%);fill-opacity:1;" d="M 147.652344 116.621094 L 141.863281 113.285156 L 136.566406 117.449219 L 142.355469 120.785156 Z M 147.652344 116.621094 "/>
<path style=" stroke:none;fill-rule:nonzero;fill:rgb(87.843137%,87.843137%,87.843137%);fill-opacity:1;" d="M 136.566406 117.449219 L 136.914062 122.980469 L 142.703125 126.316406 L 142.355469 120.785156 Z M 136.566406 117.449219 "/>
<path style=" stroke:none;fill-rule:nonzero;fill:rgb(96.078431%,96.078431%,96.078431%);fill-opacity:1;" d="M 139.777344 130.1875 L 133.988281 126.851562 L 129.617188 126.636719 L 135.398438 129.972656 Z M 139.777344 130.1875 "/>
<path style=" stroke:none;fill-rule:nonzero;fill:rgb(87.843137%,87.843137%,87.843137%);fill-opacity:1;" d="M 129.617188 126.636719 L 126.546875 133.503906 L 132.328125 136.839844 L 135.398438 129.972656 Z M 129.617188 126.636719 "/>
<path style=" stroke:none;fill-rule:nonzero;fill:rgb(96.078431%,96.078431%,96.078431%);fill-opacity:1;" d="M 135.34375 142.800781 L 129.5625 139.464844 L 124.789062 143.851562 L 130.570312 147.1875 Z M 135.34375 142.800781 "/>
<path style=" stroke:none;fill-rule:nonzero;fill:rgb(87.843137%,87.843137%,87.843137%);fill-opacity:1;" d="M 131.535156 152.753906 L 125.746094 149.417969 L 124.789062 143.851562 L 130.570312 147.1875 Z M 131.535156 152.753906 "/>
<path style=" stroke:none;fill-rule:nonzero;fill:rgb(96.078431%,96.078431%,96.078431%);fill-opacity:1;" d="M 155.734375 113.980469 L 149.945312 110.644531 L 154.371094 111.632812 L 160.148438 114.96875 Z M 155.734375 113.980469 "/>
<path style=" stroke:none;fill-rule:nonzero;fill:rgb(87.843137%,87.843137%,87.843137%);fill-opacity:1;" d="M 133.878906 97.414062 L 133.878906 89.109375 L 127.269531 92.089844 C 126.921875 90.679688 126.316406 89.347656 125.488281 88.15625 L 129.652344 79.761719 L 124.566406 76.828125 L 119.375 84.632812 C 117.929688 84.507812 116.472656 84.648438 115.078125 85.050781 L 114.34375 77.835938 L 107.15625 81.992188 L 106.433594 90.019531 C 104.867188 91.40625 103.429688 92.929688 102.132812 94.570312 L 96.941406 92.785156 L 91.859375 101.597656 L 96.015625 105.167969 C 95.246094 107.109375 94.648438 109.113281 94.230469 111.160156 L 87.621094 115.808594 L 87.621094 124.121094 L 94.230469 121.140625 C 94.582031 122.550781 95.1875 123.882812 96.015625 125.078125 L 91.875 133.480469 L 96.960938 136.414062 L 102.152344 128.609375 C 103.597656 128.734375 105.054688 128.59375 106.453125 128.1875 L 107.171875 135.40625 L 114.363281 131.25 L 115.09375 123.222656 C 117.339844 122.402344 119.328125 121.003906 120.855469 119.171875 L 124.585938 120.484375 L 129.671875 111.679688 L 126.546875 109.003906 C 127.226562 106.769531 127.476562 104.433594 127.289062 102.105469 Z M 110.75 118.164062 C 105.238281 121.347656 101.832031 119.054688 101.832031 112.714844 C 101.832031 106.371094 106.390625 98.53125 111.910156 95.347656 C 117.433594 92.160156 120.769531 94.453125 120.769531 100.847656 C 120.769531 107.246094 116.273438 114.96875 110.75 118.164062 Z M 110.75 118.164062 "/>
<path style=" stroke:none;fill-rule:nonzero;fill:rgb(96.078431%,96.078431%,96.078431%);fill-opacity:1;" d="M 130.347656 80.15625 L 124.566406 76.828125 L 119.375 84.632812 L 125.15625 87.96875 Z M 130.347656 80.15625 "/>
<path style=" stroke:none;fill-rule:nonzero;fill:rgb(96.078431%,96.078431%,96.078431%);fill-opacity:1;" d="M 139.667969 92.445312 L 133.878906 89.109375 L 127.269531 92.089844 L 133.058594 95.425781 Z M 139.667969 92.445312 "/>
<path style=" stroke:none;fill-rule:nonzero;fill:rgb(87.843137%,87.843137%,87.843137%);fill-opacity:1;" d="M 112.9375 138.742188 L 107.15625 135.40625 L 106.433594 128.1875 L 112.214844 131.527344 Z M 112.9375 138.742188 "/>
<path style=" stroke:none;fill-rule:nonzero;fill:rgb(87.843137%,87.843137%,87.843137%);fill-opacity:1;" d="M 91.847656 133.480469 L 97.636719 136.816406 L 101.804688 128.421875 L 96.015625 125.085938 Z M 91.847656 133.480469 "/>
<path style=" stroke:none;fill-rule:nonzero;fill:rgb(92.156863%,92.156863%,92.156863%);fill-opacity:1;" d="M 139.667969 100.796875 L 139.667969 92.492188 L 133.058594 95.445312 C 132.714844 94.035156 132.109375 92.699219 131.277344 91.511719 L 135.441406 83.117188 L 130.355469 80.171875 L 125.164062 87.988281 C 123.71875 87.855469 122.261719 88 120.867188 88.40625 L 120.132812 81.171875 L 112.945312 85.328125 L 112.214844 93.355469 C 110.652344 94.746094 109.210938 96.269531 107.914062 97.90625 L 102.722656 96.121094 L 97.636719 104.933594 L 101.804688 108.503906 C 101.03125 110.445312 100.433594 112.449219 100.019531 114.496094 L 93.410156 119.144531 L 93.410156 127.457031 L 100.019531 124.480469 C 100.367188 125.890625 100.972656 127.222656 101.804688 128.414062 L 97.636719 136.804688 L 102.722656 139.742188 L 107.914062 131.9375 C 109.359375 132.0625 110.820312 131.921875 112.214844 131.515625 L 112.945312 138.734375 L 120.132812 134.574219 L 120.855469 126.546875 C 122.421875 125.160156 123.859375 123.640625 125.15625 122 L 130.347656 123.78125 L 135.433594 114.980469 L 131.265625 111.410156 C 132.039062 109.46875 132.636719 107.464844 133.050781 105.417969 Z M 116.539062 121.542969 C 111.019531 124.726562 106.539062 122.140625 106.539062 115.773438 C 106.539062 109.402344 111 101.652344 116.539062 98.457031 C 122.078125 95.265625 126.53125 97.859375 126.53125 104.230469 C 126.53125 110.597656 122.050781 118.304688 116.539062 121.5 Z M 116.539062 121.542969 "/>
<path style=" stroke:none;fill-rule:nonzero;fill:rgb(94.117647%,94.117647%,94.117647%);fill-opacity:1;" d="M 102.132812 94.585938 L 107.914062 97.921875 L 102.722656 96.113281 L 96.941406 92.769531 Z M 102.132812 94.585938 "/>
<path style=" stroke:none;fill-rule:nonzero;fill:rgb(96.078431%,96.078431%,96.078431%);fill-opacity:1;" d="M 91.855469 101.59375 L 96.941406 92.777344 L 102.730469 96.117188 L 97.644531 104.929688 Z M 91.855469 101.59375 "/>
<path style=" stroke:none;fill-rule:nonzero;fill:rgb(87.843137%,87.843137%,87.843137%);fill-opacity:1;" d="M 91.847656 101.582031 L 97.636719 104.917969 L 101.804688 108.503906 L 96.015625 105.175781 Z M 91.847656 101.582031 "/>
<path style=" stroke:none;fill-rule:nonzero;fill:rgb(96.078431%,96.078431%,96.078431%);fill-opacity:1;" d="M 94.230469 111.171875 L 100.019531 114.507812 L 93.410156 119.152344 L 87.621094 115.816406 Z M 94.230469 111.171875 "/>
<path style=" stroke:none;fill-rule:nonzero;fill:rgb(87.843137%,87.843137%,87.843137%);fill-opacity:1;" d="M 87.621094 115.816406 L 93.410156 119.152344 L 93.410156 127.46875 L 87.621094 124.128906 Z M 87.621094 115.816406 "/>
<path style=" stroke:none;fill-rule:nonzero;fill:rgb(96.078431%,96.078431%,96.078431%);fill-opacity:1;" d="M 120.132812 81.171875 L 114.34375 77.835938 L 107.15625 81.992188 L 112.9375 85.328125 Z M 120.132812 81.171875 "/>
<path style=" stroke:none;fill-rule:nonzero;fill:rgb(87.843137%,87.843137%,87.843137%);fill-opacity:1;" d="M 194.347656 319.378906 L 278.195312 270.960938 C 278.574219 270.828125 278.828125 270.472656 278.828125 270.070312 C 278.828125 269.667969 278.574219 269.3125 278.195312 269.179688 L 270.445312 264.71875 C 269.472656 264.230469 268.324219 264.230469 267.351562 264.71875 L 183.476562 313.09375 C 183.097656 313.226562 182.84375 313.582031 182.84375 313.984375 C 182.84375 314.386719 183.097656 314.742188 183.476562 314.875 L 191.253906 319.335938 C 192.21875 319.839844 193.367188 319.855469 194.347656 319.378906 Z M 194.347656 319.378906 "/>
<path style=" stroke:none;fill-rule:nonzero;fill:rgb(27.058824%,35.294118%,39.215686%);fill-opacity:1;" d="M 275.894531 84.027344 L 200.289062 127.679688 C 198.011719 129.167969 196.574219 131.652344 196.425781 134.371094 L 196.425781 313.726562 C 196.425781 316.1875 198.15625 317.1875 200.289062 315.957031 L 275.894531 272.300781 C 278.179688 270.816406 279.613281 268.328125 279.757812 265.609375 L 279.757812 86.257812 C 279.757812 83.792969 278.035156 82.796875 275.894531 84.027344 Z M 275.894531 84.027344 "/>
<path style=" stroke:none;fill-rule:nonzero;fill:rgb(21.568627%,27.843137%,30.980392%);fill-opacity:1;" d="M 200.289062 127.679688 L 275.894531 84.027344 C 277.804688 82.921875 279.382812 83.605469 279.703125 85.523438 C 279.34375 83.085938 277.957031 80.917969 275.894531 79.566406 L 272.753906 77.78125 C 270.328125 76.550781 267.457031 76.550781 265.03125 77.78125 L 189.417969 121.402344 C 188.277344 122.117188 187.339844 123.105469 186.6875 124.28125 L 197.558594 130.527344 C 198.210938 129.359375 199.152344 128.378906 200.289062 127.679688 Z M 200.289062 127.679688 "/>
<path style=" stroke:none;fill-rule:nonzero;fill:rgb(14.901961%,19.607843%,21.960784%);fill-opacity:1;" d="M 185.535156 307.445312 C 185.683594 310.164062 187.117188 312.648438 189.398438 314.136719 L 192.546875 315.917969 C 194.75 317.023438 197.320312 317.132812 199.613281 316.222656 C 197.828125 316.917969 196.410156 315.894531 196.410156 313.691406 L 196.410156 134.371094 C 196.453125 133.023438 196.84375 131.714844 197.542969 130.5625 L 186.667969 124.316406 C 185.980469 125.460938 185.589844 126.757812 185.535156 128.089844 Z M 185.535156 307.445312 "/>
<path style=" stroke:none;fill-rule:nonzero;fill:rgb(100%,100%,100%);fill-opacity:1;" d="M 202.367188 151.578125 L 273.84375 110.324219 C 275.128906 109.589844 276.164062 110.1875 276.164062 111.660156 L 276.164062 244.40625 C 276.078125 246.039062 275.214844 247.53125 273.84375 248.421875 L 202.394531 289.675781 C 201.109375 290.417969 200.074219 289.820312 200.074219 288.339844 L 200.074219 155.589844 C 200.15625 153.964844 201.007812 152.476562 202.367188 151.578125 Z M 202.367188 151.578125 "/>
<path style=" stroke:none;fill-rule:nonzero;fill:rgb(21.568627%,27.843137%,30.980392%);fill-opacity:1;" d="M 238.09375 112.652344 C 237.292969 113.175781 236.789062 114.050781 236.738281 115.003906 C 236.738281 115.898438 237.34375 116.226562 238.09375 115.789062 C 238.894531 115.269531 239.398438 114.390625 239.449219 113.4375 C 239.449219 112.570312 238.84375 112.222656 238.09375 112.652344 Z M 238.09375 112.652344 "/>
<path style=" stroke:none;fill-rule:nonzero;fill:rgb(21.568627%,27.843137%,30.980392%);fill-opacity:1;" d="M 238.09375 275.394531 C 234.929688 277.464844 232.941406 280.917969 232.742188 284.691406 C 232.742188 288.105469 235.140625 289.5 238.09375 287.785156 C 241.253906 285.714844 243.242188 282.265625 243.445312 278.492188 C 243.460938 275.074219 241.054688 273.683594 238.09375 275.394531 Z M 238.09375 275.394531 "/>
<path style=" stroke:none;fill-rule:nonzero;fill:rgb(21.568627%,27.843137%,30.980392%);fill-opacity:1;" d="M 225.257812 126.457031 C 223.667969 127.515625 222.671875 129.261719 222.582031 131.167969 C 222.582031 132.898438 223.792969 133.605469 225.257812 132.738281 C 226.863281 131.691406 227.875 129.941406 227.976562 128.027344 C 227.976562 126.296875 226.765625 125.59375 225.257812 126.457031 Z M 225.257812 126.457031 "/>
<path style=" stroke:none;fill-rule:nonzero;fill:rgb(21.568627%,27.843137%,30.980392%);fill-opacity:1;" d="M 231.921875 125.871094 C 231.921875 127.03125 232.8125 127.46875 233.855469 126.851562 L 251.695312 116.53125 C 252.816406 115.832031 253.535156 114.636719 253.632812 113.320312 C 253.632812 112.167969 252.738281 111.730469 251.695312 112.347656 L 233.855469 122.667969 C 232.738281 123.367188 232.019531 124.554688 231.921875 125.871094 Z M 231.921875 125.871094 "/>
<path style=" stroke:none;fill-rule:nonzero;fill:rgb(21.568627%,27.843137%,30.980392%);fill-opacity:1;" d="M 191.566406 157.320312 C 192.851562 158.160156 193.65625 159.554688 193.742188 161.085938 C 193.742188 162.476562 192.769531 163.039062 191.566406 162.34375 C 190.285156 161.503906 189.480469 160.109375 189.398438 158.578125 C 189.398438 157.195312 190.371094 156.636719 191.566406 157.320312 Z M 191.566406 157.320312 "/>
<path style=" stroke:none;fill-rule:nonzero;fill:rgb(21.568627%,27.843137%,30.980392%);fill-opacity:1;" d="M 191.566406 174.074219 C 192.851562 174.910156 193.65625 176.308594 193.742188 177.839844 C 193.742188 179.21875 192.769531 179.78125 191.566406 179.097656 C 190.285156 178.257812 189.480469 176.859375 189.398438 175.332031 C 189.398438 173.941406 190.371094 173.378906 191.566406 174.074219 Z M 191.566406 174.074219 "/>
<path style=" stroke:none;fill-rule:nonzero;fill:rgb(27.058824%,35.294118%,39.215686%);fill-opacity:1;" d="M 190.886719 157.660156 C 192.171875 158.496094 192.980469 159.894531 193.066406 161.425781 C 193.066406 162.808594 192.09375 163.371094 190.886719 162.683594 C 189.605469 161.847656 188.796875 160.449219 188.710938 158.917969 C 188.71875 157.527344 189.691406 156.992188 190.886719 157.660156 Z M 190.886719 157.660156 "/>
<path style=" stroke:none;fill-rule:nonzero;fill:rgb(27.058824%,35.294118%,39.215686%);fill-opacity:1;" d="M 190.886719 174.402344 C 192.175781 175.242188 192.984375 176.644531 193.066406 178.175781 C 193.066406 179.558594 192.09375 180.121094 190.886719 179.425781 C 189.601562 178.59375 188.792969 177.191406 188.710938 175.660156 C 188.71875 174.277344 189.691406 173.71875 190.886719 174.402344 Z M 190.886719 174.402344 "/>
<path style=" stroke:none;fill-rule:nonzero;fill:rgb(100%,100%,100%);fill-opacity:1;" d="M 290.632812 115.863281 C 290.632812 114.382812 289.597656 113.785156 288.3125 114.523438 L 279.757812 119.457031 L 216.863281 155.777344 C 215.492188 156.667969 214.628906 158.160156 214.542969 159.792969 L 214.542969 292.503906 C 214.542969 293.984375 215.578125 294.582031 216.863281 293.84375 L 279.785156 257.511719 L 288.3125 252.585938 C 289.683594 251.699219 290.542969 250.207031 290.632812 248.574219 Z M 290.632812 115.863281 "/>
<path style=" stroke:none;fill-rule:nonzero;fill:rgb(100%,69.019608%,0%);fill-opacity:1;" d="M 291.523438 115.863281 C 291.636719 114.949219 291.195312 114.054688 290.394531 113.589844 C 289.597656 113.128906 288.601562 113.191406 287.867188 113.746094 L 279.703125 118.464844 L 216.417969 155.039062 C 214.761719 156.082031 213.730469 157.875 213.652344 159.828125 L 213.652344 292.503906 C 213.578125 293.410156 214.011719 294.285156 214.777344 294.777344 C 215.09375 294.964844 215.457031 295.058594 215.828125 295.054688 C 216.351562 295.039062 216.859375 294.890625 217.308594 294.617188 L 280.640625 258.046875 L 288.785156 253.347656 C 290.429688 252.292969 291.460938 250.507812 291.550781 248.554688 Z M 279.722656 256.519531 L 278.992188 256.949219 L 216.453125 293.058594 C 216.238281 293.222656 215.964844 293.28125 215.703125 293.21875 C 215.585938 293.148438 215.472656 292.898438 215.472656 292.488281 L 215.472656 159.792969 C 215.566406 158.480469 216.253906 157.285156 217.34375 156.546875 L 279.820312 120.421875 L 288.742188 115.253906 C 288.953125 115.089844 289.226562 115.03125 289.488281 115.09375 C 289.605469 115.167969 289.722656 115.414062 289.722656 115.828125 L 289.722656 248.574219 C 289.628906 249.886719 288.9375 251.082031 287.847656 251.820312 L 279.703125 256.519531 Z M 279.722656 256.519531 "/>
<path style=" stroke:none;fill-rule:nonzero;fill:rgb(100%,69.019608%,0%);fill-opacity:1;" d="M 252.585938 146.699219 C 260.617188 142.078125 267.082031 145.804688 267.082031 155.074219 C 267.082031 164.34375 260.589844 175.589844 252.585938 180.175781 C 244.585938 184.761719 238.09375 181.066406 238.09375 171.808594 C 238.09375 162.550781 244.585938 151.328125 252.585938 146.699219 Z M 252.585938 146.699219 "/>
<path style=" stroke:none;fill-rule:nonzero;fill:rgb(100%,69.019608%,0%);fill-opacity:1;" d="M 252.585938 153.976562 C 255.183594 152.476562 257.289062 153.691406 257.289062 156.652344 C 257.109375 159.960938 255.363281 162.988281 252.585938 164.796875 C 249.992188 166.296875 247.886719 165.082031 247.886719 162.121094 C 248.066406 158.8125 249.8125 155.785156 252.585938 153.976562 Z M 252.585938 153.976562 "/>
<path style=" stroke:none;fill-rule:nonzero;fill:rgb(100%,69.019608%,0%);fill-opacity:1;" d="M 261.75 169.960938 C 261.75 165.039062 258.296875 163.039062 254.023438 165.5 L 251.347656 167.042969 C 247.085938 169.507812 243.621094 175.5 243.621094 180.425781 L 243.621094 181.753906 C 246.09375 182.566406 249.199219 182.128906 252.542969 180.175781 C 256.25 177.890625 259.382812 174.785156 261.703125 171.101562 Z M 261.75 169.960938 "/>
<use xlink:href="#surface11" mask="url(#mask2)"/>
<use xlink:href="#surface14" mask="url(#mask3)"/>
<path style=" stroke:none;fill-rule:nonzero;fill:rgb(100%,69.019608%,0%);fill-opacity:1;" d="M 224.542969 200.558594 L 243.195312 189.789062 C 244.085938 189.300781 244.738281 189.691406 244.738281 190.683594 L 244.738281 191.296875 C 244.679688 192.386719 244.105469 193.378906 243.195312 193.972656 L 224.542969 204.742188 C 223.695312 205.230469 223 204.828125 223 203.847656 L 223 203.234375 C 223.058594 202.144531 223.632812 201.152344 224.542969 200.558594 Z M 224.542969 200.558594 "/>
<use xlink:href="#surface17" mask="url(#mask4)"/>
<path style=" stroke:none;fill-rule:nonzero;fill:rgb(100%,69.019608%,0%);fill-opacity:1;" d="M 223.777344 213.554688 L 280.203125 180.976562 C 280.625 180.726562 280.972656 180.925781 280.972656 181.425781 L 280.972656 188.007812 C 280.9375 188.546875 280.65625 189.042969 280.203125 189.34375 L 223.777344 221.921875 C 223.347656 222.171875 223 221.964844 223 221.476562 L 223 214.890625 C 223.03125 214.347656 223.320312 213.851562 223.777344 213.554688 Z M 223.777344 213.554688 "/>
<use xlink:href="#surface20" mask="url(#mask5)"/>
<path style=" stroke:none;fill-rule:nonzero;fill:rgb(100%,69.019608%,0%);fill-opacity:1;" d="M 224.542969 229.839844 L 243.195312 219.074219 C 244.085938 218.585938 244.738281 218.984375 244.738281 219.96875 L 244.738281 220.582031 C 244.683594 221.671875 244.109375 222.664062 243.195312 223.257812 L 224.542969 234.023438 C 223.695312 234.523438 223 234.125 223 233.132812 L 223 232.519531 C 223.0625 231.429688 223.632812 230.4375 224.542969 229.839844 Z M 224.542969 229.839844 "/>
<use xlink:href="#surface23" mask="url(#mask6)"/>
<path style=" stroke:none;fill-rule:nonzero;fill:rgb(100%,69.019608%,0%);fill-opacity:1;" d="M 223.777344 242.839844 L 280.203125 210.261719 C 280.625 210.011719 280.972656 210.21875 280.972656 210.707031 L 280.972656 217.292969 C 280.9375 217.832031 280.65625 218.328125 280.203125 218.628906 L 223.777344 251.203125 C 223.347656 251.453125 223 251.257812 223 250.757812 L 223 244.175781 C 223.03125 243.632812 223.320312 243.136719 223.777344 242.839844 Z M 223.777344 242.839844 "/>
<use xlink:href="#surface26" mask="url(#mask7)"/>
<path style=" stroke:none;fill-rule:nonzero;fill:rgb(100%,69.019608%,0%);fill-opacity:1;" d="M 246.28125 246.574219 L 268.582031 233.722656 C 269.472656 233.222656 270.132812 233.625 270.132812 234.613281 L 270.132812 241.5 C 270.074219 242.589844 269.496094 243.582031 268.582031 244.175781 L 246.28125 257.039062 C 245.390625 257.53125 244.738281 257.128906 244.738281 256.148438 L 244.738281 249.25 C 244.800781 248.164062 245.375 247.171875 246.28125 246.574219 Z M 246.28125 246.574219 "/>
<use xlink:href="#surface29" mask="url(#mask8)"/>
<path style=" stroke:none;fill-rule:nonzero;fill:rgb(100%,65.882353%,65.490196%);fill-opacity:1;" d="M 299.085938 217.515625 C 299.085938 217.515625 288.132812 202.402344 287.492188 200.566406 C 286.984375 199.210938 287.492188 197.195312 287.652344 196.257812 C 287.8125 195.320312 287.957031 193.234375 288.117188 192.691406 C 288.382812 191.671875 287.074219 191.878906 286.332031 192.804688 C 285.589844 193.734375 285.34375 195.589844 284.957031 195.890625 C 284.574219 196.195312 281.65625 191.941406 280.132812 189.976562 C 278.605469 188.015625 277.652344 186.820312 276.714844 187.550781 C 276.046875 188.078125 276.546875 189.21875 277.652344 190.898438 C 278.300781 191.800781 278.894531 192.738281 279.4375 193.707031 C 279.605469 194.074219 278.695312 194.097656 278.207031 194.855469 C 277.824219 195.445312 278.207031 196.402344 277.671875 196.855469 C 276.988281 197.375 276.804688 198.320312 277.242188 199.058594 C 278.234375 200.617188 279.515625 201.972656 281.015625 203.054688 C 282.65625 204.1875 283.316406 204.589844 284.289062 206.132812 C 285.261719 207.675781 293.984375 223.4375 294.574219 224.382812 C 295.164062 225.328125 296.296875 227.253906 298.015625 227.308594 C 299.738281 227.363281 313.832031 215.230469 314.554688 214.625 C 316.875 212.6875 317.613281 212.410156 318.007812 214.152344 C 318.140625 214.769531 318.242188 215.394531 318.308594 216.023438 C 318.585938 218.238281 320.09375 226.140625 320.09375 226.140625 C 320.09375 226.140625 327.230469 229.59375 333.089844 227.925781 C 338.949219 226.253906 340.929688 223.765625 340.929688 223.765625 L 337.996094 218.984375 C 338.789062 217.015625 342.457031 209.023438 343.644531 203.429688 L 325.269531 200.460938 C 324.894531 200.378906 324.285156 200.226562 323.484375 200.023438 C 322.476562 199.753906 319.914062 198.871094 317.980469 200.566406 C 311.664062 206.070312 299.105469 217.515625 299.105469 217.515625 "/>
<path style=" stroke:none;fill-rule:nonzero;fill:rgb(21.568627%,27.843137%,30.980392%);fill-opacity:1;" d="M 335.515625 310.230469 L 332.226562 314.804688 C 333.722656 315.503906 335.355469 315.855469 337.007812 315.832031 C 339.960938 315.9375 340.769531 314.9375 340.878906 314.742188 C 341.378906 313.671875 340.601562 311.746094 340.386719 310.085938 Z M 335.515625 310.230469 "/>
<path style=" stroke:none;fill-rule:nonzero;fill:rgb(21.568627%,27.843137%,30.980392%);fill-opacity:1;" d="M 332.414062 312.609375 C 332.414062 312.609375 328.417969 312.351562 325.660156 312.011719 C 322.902344 311.671875 320.71875 313.011719 321.359375 314.144531 C 322.003906 315.277344 323.527344 316.222656 325.902344 317.015625 C 327.925781 317.703125 330.359375 318.195312 332.464844 318.800781 C 334.570312 319.40625 336.035156 320.203125 337.257812 319.773438 C 338.621094 319.300781 339.210938 318.757812 339.09375 317.757812 C 338.796875 316.335938 338.425781 314.929688 337.988281 313.546875 Z M 332.414062 312.609375 "/>
<path style=" stroke:none;fill-rule:nonzero;fill:rgb(94.901961%,56.078431%,56.078431%);fill-opacity:1;" d="M 340.878906 305.636719 C 340.878906 305.636719 340.378906 309.792969 340.34375 310.683594 C 340.308594 311.574219 336.285156 311.859375 335.515625 310.230469 L 335.390625 305.144531 Z M 340.878906 305.636719 "/>
<path style=" stroke:none;fill-rule:nonzero;fill:rgb(100%,65.882353%,65.490196%);fill-opacity:1;" d="M 336.828125 308.1875 L 338.265625 314.5 C 338.265625 314.5 338.398438 315.269531 335.117188 315.757812 C 331.832031 316.25 326.675781 314.039062 325.792969 313.589844 C 324.910156 313.144531 324.8125 312.246094 328.042969 312.421875 C 331.269531 312.601562 332.414062 312.609375 332.414062 312.609375 L 331.359375 309.820312 Z M 336.828125 308.1875 "/>
<path style=" stroke:none;fill-rule:nonzero;fill:rgb(94.901961%,56.078431%,56.078431%);fill-opacity:1;" d="M 343.589844 203.375 L 345.863281 202.742188 C 345.863281 202.742188 350.617188 217.789062 351.144531 219.246094 C 351.671875 220.699219 352.269531 222.234375 351.242188 224.027344 C 350.019531 226.15625 343.589844 234.730469 343.589844 234.730469 L 339.503906 230.734375 L 344.140625 222.242188 L 340.039062 213.945312 Z M 343.589844 203.375 "/>
<path style=" stroke:none;fill-rule:nonzero;fill:rgb(21.568627%,27.843137%,30.980392%);fill-opacity:1;" d="M 320.226562 183.832031 C 319.144531 181.796875 319.179688 179.347656 320.324219 177.347656 C 322.59375 173.144531 327.640625 171.101562 333.652344 171.878906 C 336.4375 172.246094 339.71875 174.554688 341.511719 178.007812 C 343.492188 181.835938 343.679688 189.542969 344.1875 192.457031 Z M 320.226562 183.832031 "/>
<path style=" stroke:none;fill-rule:nonzero;fill:rgb(100%,65.882353%,65.490196%);fill-opacity:1;" d="M 320.066406 185.484375 C 320.066406 185.484375 318.640625 188.203125 318.890625 188.453125 C 319.261719 188.667969 319.664062 188.820312 320.085938 188.898438 Z M 320.066406 185.484375 "/>
<path style=" stroke:none;fill-rule:nonzero;fill:rgb(100%,65.882353%,65.490196%);fill-opacity:1;" d="M 324.402344 176.882812 C 322.851562 177.890625 320.175781 179.746094 320.058594 185.855469 C 319.933594 192.101562 320.824219 194.160156 321.753906 194.882812 C 322.378906 195.375 326.042969 195.125 327.613281 194.757812 C 329.183594 194.394531 333.707031 192.15625 335.339844 188.757812 C 337.257812 184.761719 336.863281 178.945312 334.019531 177.160156 C 331.074219 175.417969 327.441406 175.316406 324.402344 176.882812 Z M 324.402344 176.882812 "/>
<path style=" stroke:none;fill-rule:nonzero;fill:rgb(100%,69.019608%,0%);fill-opacity:1;" d="M 340.878906 223.730469 C 343.625 228.011719 346.230469 231.757812 346.800781 236.59375 C 347.976562 246.753906 344.125 258.367188 343.296875 265.886719 C 344.855469 268.027344 345.753906 270.574219 345.882812 273.21875 C 345.882812 276.332031 340.878906 305.636719 340.878906 305.636719 C 340.878906 305.636719 337.238281 306.742188 335.390625 305.144531 L 331.957031 251.242188 L 333.742188 244.675781 Z M 340.878906 223.730469 "/>
<use xlink:href="#surface32" mask="url(#mask9)"/>
<path style=" stroke:none;fill-rule:nonzero;fill:rgb(100%,69.019608%,0%);fill-opacity:1;" d="M 331.957031 251.242188 L 333.742188 244.675781 C 337.15625 243.777344 340.453125 242.46875 343.554688 240.777344 C 343.554688 240.777344 341.699219 244.160156 336.363281 246.011719 L 333.609375 254.441406 L 333.375 273.753906 Z M 331.957031 251.242188 "/>
<use xlink:href="#surface35" mask="url(#mask10)"/>
<path style=" stroke:none;fill-rule:nonzero;fill:rgb(100%,69.019608%,0%);fill-opacity:1;" d="M 340.878906 223.730469 C 342.347656 226.140625 345.863281 230.242188 345.113281 234.195312 C 344.222656 238.976562 341.636719 242.339844 333.769531 244.675781 L 326.382812 271.4375 C 326.382812 271.4375 330.226562 275.003906 331.40625 278.457031 C 332.582031 281.90625 336.828125 308.203125 336.828125 308.203125 C 336.828125 308.203125 335.507812 310.355469 331.359375 309.835938 C 331.359375 309.835938 316.902344 276.832031 315.882812 274.683594 C 314.648438 272.503906 314.21875 269.964844 314.660156 267.5 C 315.117188 264.039062 320.015625 226.15625 320.015625 226.15625 Z M 340.878906 223.730469 "/>
<use xlink:href="#surface38" mask="url(#mask11)"/>
<path style=" stroke:none;fill-rule:nonzero;fill:rgb(100%,69.019608%,0%);fill-opacity:1;" d="M 343.589844 203.375 L 325.214844 200.40625 C 324.839844 200.324219 324.234375 200.171875 323.429688 199.96875 C 323.429688 199.96875 322.644531 211.492188 317.925781 214.132812 C 318.042969 214.6875 318.140625 215.300781 318.230469 216.007812 C 318.507812 218.21875 320.015625 226.121094 320.015625 226.121094 C 320.015625 226.121094 327.148438 229.574219 333.011719 227.90625 C 338.871094 226.238281 340.851562 223.75 340.851562 223.75 L 337.917969 218.96875 C 338.738281 216.980469 342.429688 208.988281 343.589844 203.375 Z M 343.589844 203.375 "/>
<use xlink:href="#surface41" mask="url(#mask12)"/>
<path style=" stroke:none;fill-rule:nonzero;fill:rgb(100%,69.019608%,0%);fill-opacity:1;" d="M 338.746094 217.066406 C 336.304688 218.535156 333.75 219.796875 331.101562 220.839844 C 333.503906 220.792969 335.855469 220.144531 337.941406 218.949219 Z M 338.746094 217.066406 "/>
<path style=" stroke:none;fill-rule:nonzero;fill:rgb(21.568627%,27.843137%,30.980392%);fill-opacity:1;" d="M 323.949219 177.1875 C 323.949219 177.1875 323.054688 182.984375 325.160156 186.390625 C 325.160156 186.390625 325.945312 184.082031 327.898438 184.519531 C 329.851562 184.957031 329.960938 187.535156 328.585938 188.980469 C 327.875 189.804688 326.75 190.152344 325.695312 189.871094 C 325.695312 189.871094 325.382812 194.0625 325.214844 197.578125 C 325.042969 201.09375 324.117188 208.753906 328.070312 211.851562 C 332.019531 214.945312 341.9375 216.035156 346.585938 209.539062 C 349.171875 205.925781 345.738281 199.539062 344.140625 192.378906 C 342.671875 185.792969 341.839844 176.035156 334.855469 174.464844 C 327.871094 172.894531 323.949219 177.1875 323.949219 177.1875 Z M 323.949219 177.1875 "/>
<path style=" stroke:none;fill-rule:nonzero;fill:rgb(92.156863%,92.156863%,92.156863%);fill-opacity:1;" d="M 349.574219 97.96875 L 348.101562 98.859375 C 348.226562 98.335938 348.296875 97.800781 348.308594 97.265625 C 348.308594 94.277344 346.210938 93.070312 343.625 94.585938 C 342.839844 95.0625 342.136719 95.664062 341.546875 96.371094 C 341.546875 92.359375 338.726562 90.726562 335.25 92.730469 C 331.53125 95.15625 329.191406 99.210938 328.953125 103.640625 C 328.953125 103.847656 328.953125 104.042969 328.953125 104.238281 C 328.054688 104.125 327.148438 104.335938 326.390625 104.828125 C 323.628906 106.628906 321.886719 109.640625 321.707031 112.9375 C 321.707031 113.3125 321.746094 113.691406 321.824219 114.058594 L 321.039062 114.515625 C 318.90625 115.746094 317.175781 118.144531 317.175781 119.867188 C 317.175781 121.589844 318.90625 122 321.039062 120.757812 L 349.582031 104.300781 C 351.714844 103.070312 353.445312 100.671875 353.445312 98.949219 C 353.445312 97.226562 351.707031 96.726562 349.574219 97.96875 Z M 349.574219 97.96875 "/>
</g>
</svg>
